<?xml version="1.0" standalone="no"?>
<!DOCTYPE svg PUBLIC "-//W3C//DTD SVG 20010904//EN"
 "http://www.w3.org/TR/2001/REC-SVG-20010904/DTD/svg10.dtd">
<svg version="1.0" xmlns="http://www.w3.org/2000/svg"
 width="130.000000pt" height="130.000000pt" viewBox="0 0 130.000000 130.000000"
 preserveAspectRatio="xMidYMid meet">
<metadata>
Created by potrace 1.11, written by Peter Selinger 2001-2013
</metadata>
<g transform="translate(0.000000,130.000000) scale(0.100000,-0.100000)"
fill="#000000" stroke="none">
<path d="M505 1276 c-237 -59 -426 -249 -481 -483 -21 -91 -14 -253 15 -343
98 -306 420 -498 732 -436 238 48 428 221 500 456 30 97 32 255 5 344 -69 229
-242 400 -462 456 -89 23 -230 25 -309 6z m298 -111 c92 -24 157 -63 236 -142
84 -84 85 -88 30 -201 -39 -80 -115 -162 -236 -253 -52 -40 -107 -91 -122
-113 -52 -79 -25 -201 45 -201 26 0 30 4 44 60 22 80 34 100 82 135 52 38 65
38 38 2 -39 -53 -43 -142 -7 -142 8 0 47 24 88 53 41 29 96 66 122 82 l48 28
-16 -39 c-115 -275 -443 -398 -720 -270 -275 128 -386 467 -242 741 62 117
197 224 328 259 71 19 210 20 282 1z"/>
</g>
</svg>
